<svg xmlns="http://www.w3.org/2000/svg" viewBox="0 0 50 50"><path fill="none" stroke="#302A63" stroke-width="2" stroke-linecap="round" stroke-linejoin="round" stroke-miterlimit="10" d="M14.8 35.2c-2.9 2.9-2.9 7.6 0 10.5l24.9-24.9-5.3-5.3-19.6 19.7z"></path><path fill="none" stroke="#302A63" stroke-width="2" stroke-linecap="round" stroke-linejoin="round" stroke-miterlimit="10" d="M14.8 35.2l19.7-19.7-5.3-5.3-25 25c3 2.9 7.7 2.9 10.6 0z"></path><path fill="none" stroke="#5649CF" stroke-width="2" stroke-linecap="round" stroke-linejoin="round" stroke-miterlimit="10" d="M46.4 3.6c-2.9-2.9-6.9-3.7-9.8-.8l-2.8 2.8 10.5 10.5 2.8-2.8c3-2.8 2.2-6.8-.7-9.7zm-17.2 6.7l5.3 5.2 5.2 5.3 4.6-4.6L33.8 5.7z"></path><path fill="none" stroke="#302A63" stroke-width="2" stroke-linecap="round" stroke-linejoin="round" stroke-miterlimit="10" d="M14.8 35.2c-2.9 2.9-7.6 2.9-10.5 0L1 49l4.3-1L2 44.7 5.3 48l9.5-2.2c-2.9-3-2.9-7.7 0-10.6z"></path></svg>